solid OpenSCAD_Model
  facet normal -1 0 0
    outer loop
      vertex -32.5 -25 -6
      vertex -32.5 25 6
      vertex -32.5 25 -6
    endloop
  endfacet
  facet normal -1 -0 0
    outer loop
      vertex -32.5 25 6
      vertex -32.5 -25 -6
      vertex -32.5 -25 6
    endloop
  endfacet
  facet normal 0 0 1
    outer loop
      vertex 32.5 25 6
      vertex 30.5 23 6
      vertex 32.5 -25 6
    endloop
  endfacet
  facet normal 0 0 1
    outer loop
      vertex 32.5 25 6
      vertex -30.5 23 6
      vertex 30.5 23 6
    endloop
  endfacet
  facet normal 0 0 1
    outer loop
      vertex -30.5 23 6
      vertex -32.5 25 6
      vertex -30.5 -23 6
    endloop
  endfacet
  facet normal -0 0 1
    outer loop
      vertex -32.5 25 6
      vertex -30.5 23 6
      vertex 32.5 25 6
    endloop
  endfacet
  facet normal -0 0 1
    outer loop
      vertex 30.5 -23 6
      vertex 32.5 -25 6
      vertex 30.5 23 6
    endloop
  endfacet
  facet normal -0 0 1
    outer loop
      vertex -30.5 -23 6
      vertex 32.5 -25 6
      vertex 30.5 -23 6
    endloop
  endfacet
  facet normal 0 0 1
    outer loop
      vertex -30.5 -23 6
      vertex -32.5 -25 6
      vertex 32.5 -25 6
    endloop
  endfacet
  facet normal 0 0 1
    outer loop
      vertex -32.5 -25 6
      vertex -30.5 -23 6
      vertex -32.5 25 6
    endloop
  endfacet
  facet normal 1 -0 0
    outer loop
      vertex 32.5 -25 6
      vertex 32.5 25 -6
      vertex 32.5 25 6
    endloop
  endfacet
  facet normal 1 0 0
    outer loop
      vertex 32.5 25 -6
      vertex 32.5 -25 6
      vertex 32.5 -25 -6
    endloop
  endfacet
  facet normal 0 0 -1
    outer loop
      vertex -32.5 -25 -6
      vertex 32.5 25 -6
      vertex 32.5 -25 -6
    endloop
  endfacet
  facet normal -0 0 -1
    outer loop
      vertex 32.5 25 -6
      vertex -32.5 -25 -6
      vertex -32.5 25 -6
    endloop
  endfacet
  facet normal 0 -1 0
    outer loop
      vertex -32.5 -25 -6
      vertex 32.5 -25 6
      vertex -32.5 -25 6
    endloop
  endfacet
  facet normal 0 -1 -0
    outer loop
      vertex 32.5 -25 6
      vertex -32.5 -25 -6
      vertex 32.5 -25 -6
    endloop
  endfacet
  facet normal 0 1 -0
    outer loop
      vertex 32.5 25 -6
      vertex -32.5 25 6
      vertex 32.5 25 6
    endloop
  endfacet
  facet normal 0 1 0
    outer loop
      vertex -32.5 25 6
      vertex 32.5 25 -6
      vertex -32.5 25 -6
    endloop
  endfacet
  facet normal 1 -0 0
    outer loop
      vertex -30.5 -23 6
      vertex -30.5 23 -4
      vertex -30.5 23 6
    endloop
  endfacet
  facet normal 1 0 0
    outer loop
      vertex -30.5 23 -4
      vertex -30.5 -23 6
      vertex -30.5 -23 -4
    endloop
  endfacet
  facet normal -1 0 0
    outer loop
      vertex 30.5 -23 -4
      vertex 30.5 23 6
      vertex 30.5 23 -4
    endloop
  endfacet
  facet normal -1 -0 0
    outer loop
      vertex 30.5 23 6
      vertex 30.5 -23 -4
      vertex 30.5 -23 6
    endloop
  endfacet
  facet normal 0 -1 0
    outer loop
      vertex -30.5 23 -4
      vertex 30.5 23 6
      vertex -30.5 23 6
    endloop
  endfacet
  facet normal 0 -1 -0
    outer loop
      vertex 30.5 23 6
      vertex -30.5 23 -4
      vertex 30.5 23 -4
    endloop
  endfacet
  facet normal -0 0 1
    outer loop
      vertex -30.5 23 -4
      vertex 30.5 -23 -4
      vertex 30.5 23 -4
    endloop
  endfacet
  facet normal 0 0 1
    outer loop
      vertex 30.5 -23 -4
      vertex -30.5 23 -4
      vertex -30.5 -23 -4
    endloop
  endfacet
  facet normal 0 1 -0
    outer loop
      vertex 30.5 -23 -4
      vertex -30.5 -23 6
      vertex 30.5 -23 6
    endloop
  endfacet
  facet normal 0 1 0
    outer loop
      vertex -30.5 -23 6
      vertex 30.5 -23 -4
      vertex -30.5 -23 -4
    endloop
  endfacet
endsolid OpenSCAD_Model
